<?xml version="1.0" encoding="utf-8"?>
<!-- Generator: Adobe Illustrator 23.0.6, SVG Export Plug-In . SVG Version: 6.00 Build 0)  -->
<svg version="1.1" id="Layer_1" xmlns="http://www.w3.org/2000/svg" xmlns:xlink="http://www.w3.org/1999/xlink" x="0px" y="0px"
	 viewBox="0 0 215 180.4" style="enable-background:new 0 0 215 180.4;" xml:space="preserve">
<style type="text/css">
	.st0{opacity:0.1;enable-background:new    ;}
	.st1{fill:#425D8C;}
	.st2{fill:#CBE2EF;}
	.st3{fill:#85C1E5;}
	.st4{fill:#5584B1;}
	.st5{fill:#254E7B;}
	.st6{opacity:0.5;}
	.st7{opacity:0.3;}
	.st8{opacity:0.15;}
	.st9{font-family:'STHeitiTC-Medium';}
	.st10{font-size:20.3033px;}
	.st11{letter-spacing:1;}
</style>
<title>Logo</title>
<g>
	<polygon class="st0" points="55.7,123.6 56.3,123.3 56.3,123.4 	"/>
	<path class="st1" d="M139.4,131.4"/>
	<path class="st2" d="M185.2,49.8L185,50c-2.4,1.8-4.9,3.3-7.6,4.5l-0.5,0.2l-0.3,0.9l0.3-0.1c0.3-0.1,0.5-0.2,0.8-0.3v49.1
		c-0.3-0.1-0.5-0.2-0.8-0.3l-0.3-0.1l0.3,0.9l0.5,0.2c2.7,1.2,5.3,2.7,7.6,4.5l0.3,0.2l2.5-1.3V51L185.2,49.8z M182.2,106.6
		L182.2,106.6L182.2,106.6L182.2,106.6z"/>
	<path class="st3" d="M173.7,33l-0.4,0.3c-3.7,2.8-7.7,5.1-11.9,7l-0.7,0.3l-0.5,1.4l0.5-0.2l0.6-0.2v76.1l-0.6-0.3l-0.5-0.2
		l0.5,1.4l0.7,0.3c4.2,1.9,8.2,4.2,11.9,7l0.4,0.3l3.9-2V35L173.7,33z"/>
	<path class="st2" d="M37.1,104V55.3l0.3,0.1l0.3,0.1l-0.3-0.9l-0.5-0.2c-2.7-1.2-5.3-2.7-7.6-4.5L29,49.8L26.4,51v57.3l2.5,1.3
		l0.3-0.2c2.4-1.8,4.9-3.3,7.6-4.5l0.5-0.2l0.3-0.9l-0.3,0.1L37.1,104z"/>
	<path class="st3" d="M53.7,117.7V41.9c0,0-0.1-0.2,0.5,0l0.5,0.2l-0.5-1.4l-0.7-0.3c-4.2-1.9-8.2-4.2-11.9-7L41.1,33l-3.9,2v89.4
		l3.9,2l0.4-0.3c3.7-2.8,7.7-5.1,11.9-7l0.7-0.3l0.5-1.4l-0.5,0.2L53.7,117.7z"/>
	<path class="st4" d="M156.9,25.9l-0.5,0.4c-4.3,3.2-8.9,5.9-13.8,8.1l-0.9,0.4l-0.6,1.6l0.6-0.2l0.1,0v87.2l-0.1,0l-0.6-0.2
		l0.6,1.6l0.9,0.3c4.9,2.2,9.5,4.9,13.8,8.1l0.5,0.4l4.5-2.3v-103L156.9,25.9z"/>
	<path class="st4" d="M72.6,123.6l0.6-0.3V36h0l0.3,0.1l0.6,0.2l-0.6-1.6l-0.9-0.4c-4.9-2.2-9.5-4.9-13.7-8.1L58.2,26l-4.5,2.3v103
		l4.5,2.3l0.5-0.4c4.3-3.2,8.9-5.9,13.7-8.1l0.9-0.3l0.6-1.6l-0.6,0.2L72.6,123.6z"/>
	<path class="st5" d="M137.1,19.1l-0.6,0.5c-4.8,3.6-10,6.6-15.5,9.1l-0.9,0.4h-0.7v101.3h0.7l1,0.4c5.5,2.5,10.7,5.5,15.5,9.1
		l0.6,0.4l5.1-2.5v-116L137.1,19.1z"/>
	<path class="st5" d="M95.3,29l-1-0.4c-5.5-2.5-10.7-5.5-15.5-9.1l-0.6-0.4l-5.1,2.5v116l5.1,2.6l0.6-0.5c4.8-3.6,10-6.6,15.5-9.1
		l0.9-0.4h0.7V29H95.3z"/>
	<g class="st6">
		
			<image style="overflow:visible;opacity:0.25;enable-background:new    ;" width="34" height="145" xlink:href="E9FEAAAEB52A7B4F.png"  transform="matrix(0.7882 0 0 0.7882 129.9628 22.4412)">
		</image>
		<polygon class="st5" points="144.9,122.5 142.2,124.7 142.2,34.6 144.9,36.7 		"/>
	</g>
	<g class="st6">
		
			<image style="overflow:visible;opacity:0.25;enable-background:new    ;" width="34" height="145" xlink:href="E9FEAAAEB52A7B44.png"  transform="matrix(0.7882 0 0 0.7882 58.2394 22.4412)">
		</image>
		<polygon class="st5" points="70.4,122.5 73.1,124.7 73.1,34.6 70.4,36.7 		"/>
	</g>
	<g class="st7">
		
			<image style="overflow:visible;opacity:0.25;enable-background:new    ;" width="34" height="131" xlink:href="E9FEAAAEB52A7B45.png"  transform="matrix(0.7882 0 0 0.7882 39.3233 27.9584)">
		</image>
		<polygon class="st5" points="51.3,117.2 53.7,119 53.7,40.4 51.3,42.2 		"/>
	</g>
	<g class="st7">
		
			<image style="overflow:visible;opacity:0.25;enable-background:new    ;" width="34" height="131" xlink:href="E9FEAAAEB52A7B46.png"  transform="matrix(0.7882 0 0 0.7882 149.6671 27.9584)">
		</image>
		<polygon class="st5" points="163.9,117.2 161.5,119 161.5,40.4 163.9,42.2 		"/>
	</g>
	<g class="st8">
		
			<image style="overflow:visible;opacity:0.25;enable-background:new    ;" width="34" height="95" xlink:href="E9FEAAAEB52A7B47.png"  transform="matrix(0.7882 0 0 0.7882 165.4305 42.1454)">
		</image>
		<polygon class="st5" points="179.8,103.6 177.6,104.8 177.6,54.5 179.8,55.7 		"/>
	</g>
	<g class="st8">
		
			<image style="overflow:visible;opacity:0.25;enable-background:new    ;" width="34" height="95" xlink:href="E9FEAAAEB52A7B57.png"  transform="matrix(0.7882 0 0 0.7882 22.7717 42.1454)">
		</image>
		<polygon class="st5" points="35,103.6 37.2,104.8 37.2,54.5 35,55.7 		"/>
	</g>
	<text transform="matrix(1 0 0 1 51.221 158.4315)" class="st5 st9 st10 st11">perspective</text>
</g>
</svg>
